<svg width="75" height="20" viewBox="0 0 75 20" fill="none" xmlns="http://www.w3.org/2000/svg">
<path d="M51.6861 10.8048C51.6861 8.19503 49.7903 6.30005 47.179 6.30005C44.5676 6.30005 42.7656 8.15674 42.7656 10.8048C42.7656 13.4529 44.5805 15.3096 47.179 15.3096C49.7774 15.3096 51.6861 13.4146 51.6861 10.8048ZM50.4672 10.8048C50.4672 12.8031 49.0818 14.2432 47.1825 14.2432C45.2832 14.2432 43.866 12.8019 43.866 10.8048C43.866 8.80774 45.2738 7.36532 47.179 7.36532C49.0841 7.36532 50.4637 8.80658 50.4637 10.8048" fill="#3B4A5D"/>
<path d="M47.1785 16.8912C45.393 16.8912 43.8187 16.2634 42.6925 15.1947C41.4701 14.0563 40.8823 12.5257 40.8823 9.96693V1.57703H42.2197V10.8048C42.2197 13.7151 44.3055 15.8271 47.1785 15.8271C50.1114 15.8271 52.2324 13.7151 52.2324 10.8048C52.2324 7.8944 50.1067 5.78242 47.1785 5.78242C45.1748 5.78242 43.4703 6.8419 42.7464 8.50595C42.757 8.16595 42.7652 7.79577 42.7652 7.43488V1.57703H44.0076V5.53757C44.0076 5.53757 45.2745 4.71135 47.175 4.71599C50.8117 4.72411 53.4466 7.26893 53.4466 10.8036C53.4466 14.3383 50.8152 16.8912 47.175 16.8912" fill="#3B4A5D"/>
<path d="M6.34231 6.34644C3.6441 6.34644 1.76709 8.20312 1.76709 10.8501C1.76709 13.497 3.64997 15.356 6.34231 15.356C9.03465 15.356 10.9175 13.4993 10.9175 10.8501C10.9175 8.2008 9.04052 6.34644 6.34231 6.34644V6.34644ZM6.34231 14.2896C4.39256 14.2896 2.98363 12.8495 2.98363 10.8512C2.98363 8.85296 4.39139 7.41171 6.34231 7.41171C8.29323 7.41171 9.70099 8.8518 9.70099 10.8512C9.70099 12.8506 8.29206 14.2861 6.34231 14.2861" fill="#3B4A5D"/>
<path d="M6.34196 4.76245C2.65363 4.76245 0 7.32352 0 10.8512C0 14.3789 2.65363 16.9388 6.34196 16.9388C10.0303 16.9388 12.6851 14.3859 12.6851 10.8512C12.6851 7.31656 10.0303 4.76245 6.34196 4.76245ZM6.34196 15.8724C3.37276 15.8724 1.21771 13.7604 1.21771 10.8501C1.21771 7.93971 3.37276 5.82889 6.34196 5.82889C9.31116 5.82889 11.4662 7.94087 11.4662 10.8501C11.4662 13.7593 9.31116 15.8724 6.34196 15.8724" fill="#3B4A5D"/>
<path d="M37.4889 0C36.3158 0 35.4688 0.8123 35.4688 1.95184C35.4688 3.06701 36.3146 3.88048 37.4889 3.88048C38.6632 3.88048 39.5325 3.06817 39.5325 1.95184C39.5325 0.8123 38.6632 0 37.4889 0V0ZM37.4889 2.91732C37.3589 2.92291 37.2291 2.9017 37.1079 2.85505C36.9866 2.80839 36.8765 2.7373 36.7845 2.64629C36.6925 2.55528 36.6206 2.44635 36.5734 2.3264C36.5263 2.20645 36.5048 2.0781 36.5105 1.94952C36.5086 1.75549 36.5652 1.56531 36.673 1.40322C36.7809 1.24112 36.935 1.11446 37.1159 1.03935C37.2968 0.964253 37.4962 0.944122 37.6886 0.981527C37.8811 1.01893 38.058 1.11218 38.1967 1.24938C38.3354 1.38658 38.4297 1.56153 38.4675 1.75193C38.5053 1.94232 38.4849 2.13955 38.409 2.31846C38.3331 2.49737 38.205 2.64987 38.0412 2.75653C37.8773 2.86318 37.685 2.91915 37.4889 2.91732" fill="#3B4A5D"/>
<path d="M37.4909 1.45284C37.425 1.44958 37.3591 1.46036 37.2978 1.48444C37.2364 1.50853 37.181 1.54536 37.1353 1.59244C37.0896 1.63953 37.0547 1.69577 37.0328 1.75737C37.011 1.81897 37.0028 1.88449 37.0087 1.9495C37.0034 2.01352 37.0122 2.0779 37.0346 2.13821C37.0569 2.19852 37.0922 2.25331 37.1381 2.29878C37.184 2.34425 37.2392 2.37932 37.3002 2.40156C37.3611 2.42381 37.4261 2.43269 37.4909 2.4276C37.5567 2.43332 37.6229 2.42502 37.6852 2.40328C37.7475 2.38153 37.8043 2.34684 37.8519 2.30154C37.8995 2.25624 37.9367 2.20137 37.961 2.14065C37.9854 2.07992 37.9962 2.01475 37.993 1.9495C37.9953 1.88367 37.9839 1.81807 37.9594 1.75679C37.935 1.6955 37.8981 1.63984 37.851 1.59326C37.8039 1.54669 37.7477 1.51018 37.6857 1.48603C37.6237 1.46187 37.5574 1.45057 37.4909 1.45284Z" fill="#3B4A5D"/>
<path d="M20.1299 6.34644C17.5326 6.34644 15.7178 8.20312 15.7178 10.8501C15.7178 13.497 17.5326 15.356 20.1299 15.356C22.7272 15.356 24.6359 13.461 24.6359 10.8501C24.6359 8.2391 22.7413 6.34644 20.1288 6.34644H20.1299ZM20.1288 14.2896C18.2259 14.2896 16.8158 12.8495 16.8158 10.8512C16.8158 8.85296 18.2236 7.41171 20.1288 7.41171C22.0339 7.41171 23.4135 8.8518 23.4135 10.8512C23.4135 12.8506 22.0339 14.2861 20.1311 14.2861" fill="#3B4A5D"/>
<path d="M20.1307 4.76245C18.3452 4.76245 16.7708 5.39024 15.6434 6.459C14.4222 7.59854 13.8345 9.12799 13.8345 11.6809V20H15.1707V10.8443C15.1707 7.93507 17.2565 5.82309 20.1307 5.82309C23.0635 5.82309 25.1845 7.93507 25.1845 10.8443C25.1845 13.7535 23.0588 15.8666 20.1307 15.8666C18.127 15.8666 16.4224 14.8083 15.6986 13.1431C15.7091 13.4842 15.7174 13.8544 15.7174 14.2141V20H16.9597V16.1173C16.9597 16.1173 18.2267 16.9435 20.1272 16.9388C23.7639 16.9296 26.3987 14.3859 26.3987 10.8512C26.3987 7.31656 23.7674 4.76245 20.1272 4.76245" fill="#3B4A5D"/>
<path d="M29.5932 1.57703H28.257V4.99565H26.4961V5.92167H29.5932V1.57703Z" fill="#3B4A5D"/>
<path d="M29.5932 12.3841V6.46594H26.4961V7.36876H28.2558V12.5907C28.2558 15.5185 30.0413 16.68 32.4603 16.68C33.2357 16.68 33.6592 16.6336 34.0581 16.5176V15.3142C33.628 15.4182 33.1857 15.4651 32.743 15.4535C30.6525 15.4535 29.592 14.4207 29.592 12.3841" fill="#3B4A5D"/>
<path d="M34.0596 5.92167V4.99565H31.4763V1.57703H30.1401V5.92167H34.0596Z" fill="#3B4A5D"/>
<path d="M34.0596 7.36522V6.4624H30.1401V12.2912C30.1401 14.0644 30.9754 14.8894 32.768 14.8894C33.1979 14.9018 33.6275 14.855 34.0443 14.7502L34.0537 14.7792H34.0596V13.5457C33.7447 13.6635 33.4094 13.7187 33.073 13.7081C32.1098 13.7081 31.4763 13.4528 31.4763 12.1056V7.36522H34.0596Z" fill="#3B4A5D"/>
<path d="M37.227 4.99561H35.9858V16.6127H37.227V4.99561Z" fill="#3B4A5D"/>
<path d="M39.0163 4.99561H37.7739V16.6127H39.0163V4.99561Z" fill="#3B4A5D"/>
<path d="M64.1994 4.99561V11.6866C64.1994 14.2686 62.6321 15.8723 60.1087 15.8723C57.5853 15.8723 56.0192 14.2686 56.0192 11.6866V4.99561H54.8003V11.6866C54.8003 15.0786 57.0292 16.9376 60.1087 16.9376C63.1882 16.9376 65.4171 15.0809 65.4171 11.6866V4.99561H64.1994Z" fill="#3B4A5D"/>
<path d="M60.109 15.3559C62.3285 15.3559 63.653 13.9843 63.653 11.6866V4.99561H62.4341V11.6866C62.4341 13.5224 61.4475 14.2895 60.109 14.2895C58.7704 14.2895 57.7838 13.5224 57.7838 11.6866V4.99561H56.5649V11.6866C56.5649 13.9843 57.8906 15.3559 60.109 15.3559Z" fill="#3B4A5D"/>
<path d="M70.2798 15.2388C70.9461 15.2388 73.1199 15.0902 73.1199 13.1744C73.1199 12.3783 72.9416 11.7006 70.7056 10.8222L70.6411 10.7966C69.0257 10.1619 67.8584 9.70468 67.8584 8.22513C67.8584 6.70497 69.1923 5.64317 71.1022 5.64317C72.0665 5.64317 73.1892 5.94256 74.184 6.4636L74.2262 6.48564V5.41341C73.405 5.01886 72.3234 4.64636 71.1022 4.64636C69.0116 4.64636 66.7334 5.71512 66.7334 8.35974C66.7334 9.91587 67.5323 10.9127 69.8809 11.725C70.7502 12.0279 71.9011 12.4212 71.9011 13.3055C71.9011 13.9553 71.2899 14.2118 70.4933 14.2118C69.6967 14.2118 68.4251 13.9553 67.11 13.2591V14.4346L67.3024 14.5216C68.2286 14.9768 69.2468 15.2191 70.281 15.2306" fill="#3B4A5D"/>
<path d="M71.7371 9.41221C70.212 8.87725 69.6254 8.69275 69.6254 8.08816C69.6254 7.46037 70.2355 7.22828 71.0332 7.22828C72.0667 7.22828 73.2621 7.62283 74.2276 8.20421V7.08555L74.1267 7.00548C73.2187 6.49373 72.1113 6.18506 71.174 6.18506C69.5574 6.18506 68.4288 7.01593 68.4288 8.20421C68.4288 9.30313 69.3603 9.71276 71.0097 10.3464L71.059 10.3661C72.2955 10.8511 73.6939 11.3989 73.6939 13.1511C73.6939 14.7978 72.4363 15.7806 70.3317 15.7806C69.2187 15.7567 68.1229 15.5041 67.1138 15.0391V16.2193C68.0836 16.6985 69.1537 16.9453 70.2378 16.9399C72.9149 16.9399 74.8412 15.6843 74.8412 13.0362C74.8412 10.9219 73.5977 10.0621 71.7418 9.41105" fill="#3B4A5D"/>
</svg>
