<svg width="22" height="22" viewBox="0 0 22 22" fill="none" xmlns="http://www.w3.org/2000/svg">
<path fill-rule="evenodd" clip-rule="evenodd" d="M0 10.9999C0 17.3816 4.60367 22 10.9999 22C17.3963 22 22 17.3816 22 10.9999C22 4.61831 17.3963 0 10.9999 0C4.60367 0 0 4.61831 0 10.9999ZM2.0625 11C2.0625 5.8215 5.82174 2.0625 11.0004 2.0625C16.179 2.0625 19.9375 5.8215 19.9375 11C19.9375 16.1785 16.179 19.9375 11.0004 19.9375C5.82174 19.9375 2.0625 16.1785 2.0625 11ZM3.4375 11C3.4375 15.4531 6.54761 18.5625 11.0003 18.5625C15.453 18.5625 18.5625 15.4531 18.5625 11C18.5625 6.54689 15.453 3.4375 11.0003 3.4375C6.54761 3.4375 3.4375 6.54689 3.4375 11ZM5.5 11C5.5 7.80402 7.80761 5.5 10.9999 5.5C14.1924 5.5 16.5 7.80402 16.5 11C16.5 14.1959 14.1924 16.5 10.9999 16.5C7.80761 16.5 5.5 14.1959 5.5 11Z" fill="#4071FF"/>
</svg>
